<?xml version="1.0"?>
<svg xmlns="http://www.w3.org/2000/svg" version="1.1" width="1605.254638671875pt" height="720.6224975585938pt" viewBox="-1042.872062401606 -437.86124250917766 1605.2545953991241 720.6224970346517" preserveAspectRatio="none" xmlns:xlink="http://www.w3.org/1999/xlink">
  <defs>
  </defs>
  <path d="M-461.5588073730469,-335.34228515625 L-508.8998107910156,-299.0910339355469 " stroke="#6E6E6E" fill="none" stroke-width="1" stroke-opacity="1" />
  <path d="M-513.4254150390625,-295.6256103515625 L-510.24951171875,-300.8536376953125 L-507.55010986328125,-297.3284606933594 L-513.4254150390625,-295.6256103515625 " stroke="none" fill="#6E6E6E" fill-rule="evenodd" stroke-width="0" fill-opacity="1" />
  <path d="M-513.4254150390625,-295.6256103515625 L-510.24951171875,-300.8536376953125 L-507.55010986328125,-297.3284606933594 L-513.4254150390625,-295.6256103515625 " stroke="#6E6E6E" fill="none" stroke-width="1" stroke-opacity="1" />
  <path d="M-548.748779296875,-359.75018310546875 L-473.8248291015625,-359.14599609375 " stroke="#6E6E6E" fill="none" stroke-width="1" stroke-opacity="1" />
  <path d="M-468.1250305175781,-359.10003662109375 L-473.8427429199219,-356.9260559082031 L-473.80694580078125,-361.3659362792969 L-468.1250305175781,-359.10003662109375 " stroke="none" fill="#6E6E6E" fill-rule="evenodd" stroke-width="0" fill-opacity="1" />
  <path d="M-468.1250305175781,-359.10003662109375 L-473.8427429199219,-356.9260559082031 L-473.80694580078125,-361.3659362792969 L-468.1250305175781,-359.10003662109375 " stroke="#6E6E6E" fill="none" stroke-width="1" stroke-opacity="1" />
  <path d="M-396.32867431640625,-301.1765441894531 L-348.0830078125,-336.1363525390625 " stroke="#6E6E6E" fill="none" stroke-width="1" stroke-opacity="1" />
  <path d="M-343.4674072265625,-339.4809265136719 L-346.7803955078125,-334.3387145996094 L-349.3856506347656,-337.93402099609375 L-343.4674072265625,-339.4809265136719 " stroke="none" fill="#6E6E6E" fill-rule="evenodd" stroke-width="0" fill-opacity="1" />
  <path d="M-343.4674072265625,-339.4809265136719 L-346.7803955078125,-334.3387145996094 L-349.3856506347656,-337.93402099609375 L-343.4674072265625,-339.4809265136719 " stroke="#6E6E6E" fill="none" stroke-width="1" stroke-opacity="1" />
  <path d="M-288.1200866699219,-301.1263427734375 L-246.67784118652344,-334.51666259765625 " stroke="#6E6E6E" fill="none" stroke-width="1" stroke-opacity="1" />
  <path d="M-242.23927307128906,-338.0928955078125 L-245.28501892089844,-332.7879943847656 L-248.0706787109375,-336.2453918457031 L-242.23927307128906,-338.0928955078125 " stroke="none" fill="#6E6E6E" fill-rule="evenodd" stroke-width="0" fill-opacity="1" />
  <path d="M-242.23927307128906,-338.0928955078125 L-245.28501892089844,-332.7879943847656 L-248.0706787109375,-336.2453918457031 L-242.23927307128906,-338.0928955078125 " stroke="#6E6E6E" fill="none" stroke-width="1" stroke-opacity="1" />
  <path d="M-318.5448303222656,-333.53680419921875 L-318.0273742675781,-306.88861083984375 " stroke="#6E6E6E" fill="none" stroke-width="1" stroke-opacity="1" />
  <path d="M-317.916748046875,-301.189697265625 L-320.2469787597656,-306.84552001953125 L-315.8078308105469,-306.9317321777344 L-317.916748046875,-301.189697265625 " stroke="none" fill="#6E6E6E" fill-rule="evenodd" stroke-width="0" fill-opacity="1" />
  <path d="M-317.916748046875,-301.189697265625 L-320.2469787597656,-306.84552001953125 L-315.8078308105469,-306.9317321777344 L-317.916748046875,-301.189697265625 " stroke="#6E6E6E" fill="none" stroke-width="1" stroke-opacity="1" />
  <path d="M-180.6431121826172,-302.9759216308594 L-146.52845764160156,-329.9853210449219 " stroke="#6E6E6E" fill="none" stroke-width="1" stroke-opacity="1" />
  <path d="M-142.05950927734375,-333.52349853515625 L-145.15042114257812,-328.2447814941406 L-147.90646362304688,-331.7258605957031 L-142.05950927734375,-333.52349853515625 " stroke="none" fill="#6E6E6E" fill-rule="evenodd" stroke-width="0" fill-opacity="1" />
  <path d="M-142.05950927734375,-333.52349853515625 L-145.15042114257812,-328.2447814941406 L-147.90646362304688,-331.7258605957031 L-142.05950927734375,-333.52349853515625 " stroke="#6E6E6E" fill="none" stroke-width="1" stroke-opacity="1" />
  <path d="M-216.57704162597656,-333.0751647949219 L-213.79641723632812,-308.7479553222656 " stroke="#6E6E6E" fill="none" stroke-width="1" stroke-opacity="1" />
  <path d="M-213.14913940429688,-303.0848388671875 L-216.0020751953125,-308.495849609375 L-211.59078979492188,-309.00006103515625 L-213.14913940429688,-303.0848388671875 " stroke="none" fill="#6E6E6E" fill-rule="evenodd" stroke-width="0" fill-opacity="1" />
  <path d="M-213.14913940429688,-303.0848388671875 L-216.0020751953125,-308.495849609375 L-211.59078979492188,-309.00006103515625 L-213.14913940429688,-303.0848388671875 " stroke="#6E6E6E" fill="none" stroke-width="1" stroke-opacity="1" />
  <path d="M-145.64442443847656,-273.1487731933594 L-494.7967529296875,-195.88632202148438 " stroke="#6E6E6E" fill="none" stroke-width="1" stroke-opacity="1" />
  <path d="M-500.3621520996094,-194.65478515625 L-495.27642822265625,-198.0538787841797 L-494.317138671875,-193.71875 L-500.3621520996094,-194.65478515625 " stroke="none" fill="#6E6E6E" fill-rule="evenodd" stroke-width="0" fill-opacity="1" />
  <path d="M-500.3621520996094,-194.65478515625 L-495.27642822265625,-198.0538787841797 L-494.317138671875,-193.71875 L-500.3621520996094,-194.65478515625 " stroke="#6E6E6E" fill="none" stroke-width="1" stroke-opacity="1" />
  <path d="M-115.38102722167969,-328.42718505859375 L-112.77021026611328,-310.71966552734375 " stroke="#6E6E6E" fill="none" stroke-width="1" stroke-opacity="1" />
  <path d="M-111.93878173828125,-305.08062744140625 L-114.96646881103516,-310.3958435058594 L-110.5739517211914,-311.0434875488281 L-111.93878173828125,-305.08062744140625 " stroke="none" fill="#6E6E6E" fill-rule="evenodd" stroke-width="0" fill-opacity="1" />
  <path d="M-111.93878173828125,-305.08062744140625 L-114.96646881103516,-310.3958435058594 L-110.5739517211914,-311.0434875488281 L-111.93878173828125,-305.08062744140625 " stroke="#6E6E6E" fill="none" stroke-width="1" stroke-opacity="1" />
  <path d="M-440.3105163574219,-84.9673843383789 L-425.1997375488281,-84.66297912597656 " stroke="#6E6E6E" fill="none" stroke-width="1" stroke-opacity="1" />
  <path d="M-419.50091552734375,-84.54817962646484 L-425.2444763183594,-82.44343566894531 L-425.1550598144531,-86.88253021240234 L-419.50091552734375,-84.54817962646484 " stroke="none" fill="#6E6E6E" fill-rule="evenodd" stroke-width="0" fill-opacity="1" />
  <path d="M-419.50091552734375,-84.54817962646484 L-425.2444763183594,-82.44343566894531 L-425.1550598144531,-86.88253021240234 L-419.50091552734375,-84.54817962646484 " stroke="#6E6E6E" fill="none" stroke-width="1" stroke-opacity="1" />
  <path d="M-546.2760009765625,-86.90699768066406 L-520.40966796875,-86.45928955078125 " stroke="#6E6E6E" fill="none" stroke-width="1" stroke-opacity="1" />
  <path d="M-514.7105102539062,-86.36064147949219 L-520.4480590820312,-84.2396240234375 L-520.3712158203125,-88.678955078125 L-514.7105102539062,-86.36064147949219 " stroke="none" fill="#6E6E6E" fill-rule="evenodd" stroke-width="0" fill-opacity="1" />
  <path d="M-514.7105102539062,-86.36064147949219 L-520.4480590820312,-84.2396240234375 L-520.3712158203125,-88.678955078125 L-514.7105102539062,-86.36064147949219 " stroke="#6E6E6E" fill="none" stroke-width="1" stroke-opacity="1" />
  <path d="M-244.06192016601562,-82.3689193725586 L-219.37298583984375,-81.91707611083984 " stroke="#6E6E6E" fill="none" stroke-width="1" stroke-opacity="1" />
  <path d="M-213.6739501953125,-81.81277465820312 L-219.4136199951172,-79.69744873046875 L-219.33238220214844,-84.13670349121094 L-213.6739501953125,-81.81277465820312 " stroke="none" fill="#6E6E6E" fill-rule="evenodd" stroke-width="0" fill-opacity="1" />
  <path d="M-213.6739501953125,-81.81277465820312 L-219.4136199951172,-79.69744873046875 L-219.33238220214844,-84.13670349121094 L-213.6739501953125,-81.81277465820312 " stroke="#6E6E6E" fill="none" stroke-width="1" stroke-opacity="1" />
  <path d="M-345.1820983886719,-83.52408599853516 L-324.1617736816406,-83.36809539794922 " stroke="#6E6E6E" fill="none" stroke-width="1" stroke-opacity="1" />
  <path d="M-318.4619140625,-83.32579040527344 L-324.17822265625,-81.14815521240234 L-324.1452941894531,-85.5880355834961 L-318.4619140625,-83.32579040527344 " stroke="none" fill="#6E6E6E" fill-rule="evenodd" stroke-width="0" fill-opacity="1" />
  <path d="M-318.4619140625,-83.32579040527344 L-324.17822265625,-81.14815521240234 L-324.1452941894531,-85.5880355834961 L-318.4619140625,-83.32579040527344 " stroke="#6E6E6E" fill="none" stroke-width="1" stroke-opacity="1" />
  <path d="M-504.1809997558594,-174.10267639160156 L-323.73870849609375,-100.3996810913086 " stroke="#6E6E6E" fill="none" stroke-width="1" stroke-opacity="1" />
  <path d="M-318.4619140625,-98.24433898925781 L-324.5781555175781,-98.34451293945312 L-322.8992614746094,-102.45484924316406 L-318.4619140625,-98.24433898925781 " stroke="none" fill="#6E6E6E" fill-rule="evenodd" stroke-width="0" fill-opacity="1" />
  <path d="M-318.4619140625,-98.24433898925781 L-324.5781555175781,-98.34451293945312 L-322.8992614746094,-102.45484924316406 L-318.4619140625,-98.24433898925781 " stroke="#6E6E6E" fill="none" stroke-width="1" stroke-opacity="1" />
  <path d="M-442.97210693359375,37.316986083984375 L-413.2607116699219,37.15258026123047 " stroke="#6E6E6E" fill="none" stroke-width="1" stroke-opacity="1" />
  <path d="M-407.56085205078125,37.12104034423828 L-413.24847412109375,39.3725471496582 L-413.2730407714844,34.9326171875 L-407.56085205078125,37.12104034423828 " stroke="none" fill="#6E6E6E" fill-rule="evenodd" stroke-width="0" fill-opacity="1" />
  <path d="M-407.56085205078125,37.12104034423828 L-413.24847412109375,39.3725471496582 L-413.2730407714844,34.9326171875 L-407.56085205078125,37.12104034423828 " stroke="#6E6E6E" fill="none" stroke-width="1" stroke-opacity="1" />
  <path d="M-479.8891906738281,61.22282791137695 L-479.5010986328125,93.72798919677734 " stroke="#6E6E6E" fill="none" stroke-width="1" stroke-opacity="1" />
  <path d="M-479.43304443359375,99.4275894165039 L-481.720947265625,93.7544937133789 L-477.28125,93.70149230957031 L-479.43304443359375,99.4275894165039 " stroke="none" fill="#6E6E6E" fill-rule="evenodd" stroke-width="0" fill-opacity="1" />
  <path d="M-479.43304443359375,99.4275894165039 L-481.720947265625,93.7544937133789 L-477.28125,93.70149230957031 L-479.43304443359375,99.4275894165039 " stroke="#6E6E6E" fill="none" stroke-width="1" stroke-opacity="1" />
  <path d="M-549.771240234375,36.38090515136719 L-523.0713500976562,36.818973541259766 " stroke="#6E6E6E" fill="none" stroke-width="1" stroke-opacity="1" />
  <path d="M-517.3721313476562,36.91248321533203 L-523.1077880859375,39.038673400878906 L-523.034912109375,34.599273681640625 L-517.3721313476562,36.91248321533203 " stroke="none" fill="#6E6E6E" fill-rule="evenodd" stroke-width="0" fill-opacity="1" />
  <path d="M-517.3721313476562,36.91248321533203 L-523.1077880859375,39.038673400878906 L-523.034912109375,34.599273681640625 L-517.3721313476562,36.91248321533203 " stroke="#6E6E6E" fill="none" stroke-width="1" stroke-opacity="1" />
  <path d="M-208.20606994628906,-68.75397491455078 L-437.6630859375,20.911474227905273 " stroke="#6E6E6E" fill="none" stroke-width="1" stroke-opacity="1" />
  <path d="M-442.97210693359375,22.986101150512695 L-438.4710693359375,18.84374237060547 L-436.8550720214844,22.979206085205078 L-442.97210693359375,22.986101150512695 " stroke="none" fill="#6E6E6E" fill-rule="evenodd" stroke-width="0" fill-opacity="1" />
  <path d="M-442.97210693359375,22.986101150512695 L-438.4710693359375,18.84374237060547 L-436.8550720214844,22.979206085205078 L-442.97210693359375,22.986101150512695 " stroke="#6E6E6E" fill="none" stroke-width="1" stroke-opacity="1" />
  <path d="M-256.3606262207031,57.74396896362305 L-356.3236083984375,169.07872009277344 " stroke="#6E6E6E" fill="none" stroke-width="1" stroke-opacity="1" />
  <path d="M-360.1316833496094,173.32000732421875 L-357.9754638671875,167.59556579589844 L-354.6717224121094,170.56185913085938 L-360.1316833496094,173.32000732421875 " stroke="none" fill="#6E6E6E" fill-rule="evenodd" stroke-width="0" fill-opacity="1" />
  <path d="M-360.1316833496094,173.32000732421875 L-357.9754638671875,167.59556579589844 L-354.6717224121094,170.56185913085938 L-360.1316833496094,173.32000732421875 " stroke="#6E6E6E" fill="none" stroke-width="1" stroke-opacity="1" />
  <path d="M-451.6257019042969,177.68878173828125 L-273.321044921875,59.41028594970703 " stroke="#6E6E6E" fill="none" stroke-width="1" stroke-opacity="1" />
  <path d="M-268.5710754394531,56.25940704345703 L-272.0938415527344,61.26026153564453 L-274.5482177734375,57.560306549072266 L-268.5710754394531,56.25940704345703 " stroke="none" fill="#6E6E6E" fill-rule="evenodd" stroke-width="0" fill-opacity="1" />
  <path d="M-268.5710754394531,56.25940704345703 L-272.0938415527344,61.26026153564453 L-274.5482177734375,57.560306549072266 L-268.5710754394531,56.25940704345703 " stroke="#6E6E6E" fill="none" stroke-width="1" stroke-opacity="1" />
  <path d="M-446.89276123046875,111.3380126953125 L-277.6359558105469,49.572967529296875 " stroke="#6E6E6E" fill="none" stroke-width="1" stroke-opacity="1" />
  <path d="M-272.2813415527344,47.618961334228516 L-276.87493896484375,51.658443450927734 L-278.3970031738281,47.487483978271484 L-272.2813415527344,47.618961334228516 " stroke="none" fill="#6E6E6E" fill-rule="evenodd" stroke-width="0" fill-opacity="1" />
  <path d="M-272.2813415527344,47.618961334228516 L-276.87493896484375,51.658443450927734 L-278.3970031738281,47.487483978271484 L-272.2813415527344,47.618961334228516 " stroke="#6E6E6E" fill="none" stroke-width="1" stroke-opacity="1" />
  <path d="M-333.2395935058594,36.12713623046875 L-277.9800720214844,34.95438766479492 " stroke="#6E6E6E" fill="none" stroke-width="1" stroke-opacity="1" />
  <path d="M-272.2813720703125,34.83344650268555 L-277.9329833984375,37.17388916015625 L-278.0271911621094,32.73488998413086 L-272.2813720703125,34.83344650268555 " stroke="none" fill="#6E6E6E" fill-rule="evenodd" stroke-width="0" fill-opacity="1" />
  <path d="M-272.2813720703125,34.83344650268555 L-277.9329833984375,37.17388916015625 L-278.0271911621094,32.73488998413086 L-272.2813720703125,34.83344650268555 " stroke="#6E6E6E" fill="none" stroke-width="1" stroke-opacity="1" />
  <path d="M-499.9256286621094,-277.6961975097656 L-471.0824890136719,-277.8563232421875 " stroke="#6E6E6E" fill="none" stroke-width="1" stroke-opacity="1" />
  <path d="M-465.38262939453125,-277.88800048828125 L-471.0701904296875,-275.6363830566406 L-471.0948486328125,-280.0763244628906 L-465.38262939453125,-277.88800048828125 " stroke="none" fill="#6E6E6E" fill-rule="evenodd" stroke-width="0" fill-opacity="1" />
  <path d="M-465.38262939453125,-277.88800048828125 L-471.0701904296875,-275.6363830566406 L-471.0948486328125,-280.0763244628906 L-465.38262939453125,-277.88800048828125 " stroke="#6E6E6E" fill="none" stroke-width="1" stroke-opacity="1" />
  <path d="M-188.1051025390625,107.61276245117188 L-163.4712677001953,107.44232940673828 " stroke="#6E6E6E" fill="none" stroke-width="1" stroke-opacity="1" />
  <path d="M-157.7714080810547,107.40289306640625 L-163.45591735839844,109.66227722167969 L-163.48663330078125,105.22238159179688 L-157.7714080810547,107.40289306640625 " stroke="none" fill="#6E6E6E" fill-rule="evenodd" stroke-width="0" fill-opacity="1" />
  <path d="M-157.7714080810547,107.40289306640625 L-163.45591735839844,109.66227722167969 L-163.48663330078125,105.22238159179688 L-157.7714080810547,107.40289306640625 " stroke="#6E6E6E" fill="none" stroke-width="1" stroke-opacity="1" />
  <path d="M-350.71453857421875,178.20835876464844 L-265.96929931640625,130.6811065673828 " stroke="#6E6E6E" fill="none" stroke-width="1" stroke-opacity="1" />
  <path d="M-260.9977722167969,127.8929443359375 L-264.8833923339844,132.6173858642578 L-267.0552062988281,128.7448272705078 L-260.9977722167969,127.8929443359375 " stroke="none" fill="#6E6E6E" fill-rule="evenodd" stroke-width="0" fill-opacity="1" />
  <path d="M-260.9977722167969,127.8929443359375 L-264.8833923339844,132.6173858642578 L-267.0552062988281,128.7448272705078 L-260.9977722167969,127.8929443359375 " stroke="#6E6E6E" fill="none" stroke-width="1" stroke-opacity="1" />
  <path d="M-548.7250366210938,-360.0500183105469 C-548.7250366210938,-346.96087646484375 -565.3800659179688,-336.3500061035156 -585.9249877929688,-336.3500061035156 C-606.4700317382812,-336.3500061035156 -623.125,-346.9608459472656 -623.1250610351562,-360.04998779296875 L-623.1250610351562,-360.04998779296875 C-623.1250610351562,-373.13916015625 -606.4700317382812,-383.75 -585.925048828125,-383.75 C-565.3800659179688,-383.7500305175781 -548.7250366210938,-373.1391906738281 -548.7250366210938,-360.0500183105469 C-548.7250366210938,-360.0500183105469 -548.7250366210938,-360.0500183105469 -548.7250366210938,-360.0500183105469 " stroke="none" fill="#70AECC" fill-rule="evenodd" stroke-width="0" fill-opacity="1" />
  <text x="34.87602233886719" y="35.284881591796875" dx="0" dy="0" font-family="Segoe UI" font-size="8.249999754130847pt" fill="#000000" style="text-anchor:start" transform="matrix(0.750000 0.000000 0.000000 0.750000 -623.125 -383.75)">DEM</text>
  <path d="M-548.7250366210938,-360.0500183105469 C-548.7250366210938,-346.96087646484375 -565.3800659179688,-336.3500061035156 -585.9249877929688,-336.3500061035156 C-606.4700317382812,-336.3500061035156 -623.125,-346.9608459472656 -623.1250610351562,-360.04998779296875 L-623.1250610351562,-360.04998779296875 C-623.1250610351562,-373.13916015625 -606.4700317382812,-383.75 -585.925048828125,-383.75 C-565.3800659179688,-383.7500305175781 -548.7250366210938,-373.1391906738281 -548.7250366210938,-360.0500183105469 C-548.7250366210938,-360.0500183105469 -548.7250366210938,-360.0500183105469 -548.7250366210938,-360.0500183105469 " stroke="none" fill="none" stroke-width="0.75" stroke-opacity="0" />
  <path d="M-546.2250366210938,-87.55001068115234 C-546.2250366210938,-74.46086120605469 -562.8800659179688,-63.850006103515625 -583.4249877929688,-63.85000228881836 C-603.9700317382812,-63.849998474121094 -620.625,-74.46084594726562 -620.6250610351562,-87.54998779296875 L-620.6250610351562,-87.54998779296875 C-620.6250610351562,-100.6391372680664 -603.9700317382812,-111.24999237060547 -583.425048828125,-111.25 C-562.8800659179688,-111.25001525878906 -546.2250366210938,-100.63916778564453 -546.2250366210938,-87.55000305175781 C-546.2250366210938,-87.55000305175781 -546.2250366210938,-87.55000305175781 -546.2250366210938,-87.55000305175781 " stroke="none" fill="#70AECC" fill-rule="evenodd" stroke-width="0" fill-opacity="1" />
  <text x="26.99102210998535" y="35.284881591796875" dx="0" dy="0" font-family="Segoe UI" font-size="8.249999754130847pt" fill="#000000" style="text-anchor:start" transform="matrix(0.750000 0.000000 0.000000 0.750000 -620.625 -111.25)">LandUse</text>
  <path d="M-546.2250366210938,-87.55001068115234 C-546.2250366210938,-74.46086120605469 -562.8800659179688,-63.850006103515625 -583.4249877929688,-63.85000228881836 C-603.9700317382812,-63.849998474121094 -620.625,-74.46084594726562 -620.6250610351562,-87.54998779296875 L-620.6250610351562,-87.54998779296875 C-620.6250610351562,-100.6391372680664 -603.9700317382812,-111.24999237060547 -583.425048828125,-111.25 C-562.8800659179688,-111.25001525878906 -546.2250366210938,-100.63916778564453 -546.2250366210938,-87.55000305175781 C-546.2250366210938,-87.55000305175781 -546.2250366210938,-87.55000305175781 -546.2250366210938,-87.55000305175781 " stroke="none" fill="none" stroke-width="0.75" stroke-opacity="0" />
  <path d="M-549.722900390625,35.77134704589844 C-549.722900390625,48.86049270629883 -566.3779296875,59.47134780883789 -586.9228515625,59.471351623535156 C-607.4678955078125,59.47135543823242 -624.1228637695312,48.860511779785156 -624.1229248046875,35.771366119384766 L-624.1229248046875,35.77136993408203 C-624.1229248046875,22.682222366333008 -607.4678955078125,12.07136344909668 -586.9229125976562,12.071354866027832 C-566.3779296875,12.071344375610352 -549.722900390625,22.682188034057617 -549.722900390625,35.7713508605957 C-549.722900390625,35.7713508605957 -549.722900390625,35.7713508605957 -549.722900390625,35.7713508605957 " stroke="none" fill="#70AECC" fill-rule="evenodd" stroke-width="0" fill-opacity="1" />
  <text x="25.311355590820312" y="35.284881591796875" dx="0" dy="0" font-family="Segoe UI" font-size="8.249999754130847pt" fill="#000000" style="text-anchor:start" transform="matrix(0.750000 0.000000 0.000000 0.750000 -624.1228637695312 12.071354866027832)">TrailHead</text>
  <path d="M-549.722900390625,35.77134704589844 C-549.722900390625,48.86049270629883 -566.3779296875,59.47134780883789 -586.9228515625,59.471351623535156 C-607.4678955078125,59.47135543823242 -624.1228637695312,48.860511779785156 -624.1229248046875,35.771366119384766 L-624.1229248046875,35.77136993408203 C-624.1229248046875,22.682222366333008 -607.4678955078125,12.07136344909668 -586.9229125976562,12.071354866027832 C-566.3779296875,12.071344375610352 -549.722900390625,22.682188034057617 -549.722900390625,35.7713508605957 C-549.722900390625,35.7713508605957 -549.722900390625,35.7713508605957 -549.722900390625,35.7713508605957 " stroke="none" fill="none" stroke-width="0.75" stroke-opacity="0" />
  <path d="M-440.1492919921875,194.75250244140625 C-440.1492919921875,207.84165954589844 -456.8042907714844,218.4525146484375 -477.3492431640625,218.4525146484375 C-497.8942565917969,218.4525146484375 -514.5492553710938,207.8416748046875 -514.54931640625,194.75253295898438 L-514.54931640625,194.75253295898438 C-514.54931640625,181.6633758544922 -497.894287109375,171.05252075195312 -477.34930419921875,171.05252075195312 C-456.8043212890625,171.05250549316406 -440.1492919921875,181.66334533691406 -440.1492919921875,194.7525177001953 C-440.1492919921875,194.7525177001953 -440.1492919921875,194.7525177001953 -440.1492919921875,194.7525177001953 " stroke="none" fill="#70AECC" fill-rule="evenodd" stroke-width="0" fill-opacity="1" />
  <text x="5.3103556632995605" y="35.284881591796875" dx="0" dy="0" font-family="Segoe UI" font-size="8.249999754130847pt" fill="#000000" style="text-anchor:start" transform="matrix(0.750000 0.000000 0.000000 0.750000 -514.5492553710938 171.05252075195312)">CandidateSpot_C</text>
  <path d="M-440.1492919921875,194.75250244140625 C-440.1492919921875,207.84165954589844 -456.8042907714844,218.4525146484375 -477.3492431640625,218.4525146484375 C-497.8942565917969,218.4525146484375 -514.5492553710938,207.8416748046875 -514.54931640625,194.75253295898438 L-514.54931640625,194.75253295898438 C-514.54931640625,181.6633758544922 -497.894287109375,171.05252075195312 -477.34930419921875,171.05252075195312 C-456.8043212890625,171.05250549316406 -440.1492919921875,181.66334533691406 -440.1492919921875,194.7525177001953 C-440.1492919921875,194.7525177001953 -440.1492919921875,194.7525177001953 -440.1492919921875,194.7525177001953 " stroke="none" fill="none" stroke-width="0.75" stroke-opacity="0" />
  <path d="M-459.6210632324219,-382.5 L-402.22894287109375,-382.5 L-402.2289733886719,-382.5 C-397.5323791503906,-382.5000305175781 -393.72503662109375,-378.69268798828125 -393.72503662109375,-373.99609375 C-393.72503662109375,-373.99609375 -393.72503662109375,-373.9960632324219 -393.72503662109375,-373.9960632324219 L-393.7250061035156,-373.9960632324219 L-393.7250061035156,-343.60394287109375 L-393.72503662109375,-343.60394287109375 C-393.72503662109375,-338.9073486328125 -397.5323486328125,-335.1000061035156 -402.22894287109375,-335.1000061035156 L-402.22894287109375,-335.1000061035156 L-459.6210632324219,-335.1000061035156 L-459.6210632324219,-335.1000061035156 C-464.3176574707031,-335.1000061035156 -468.125,-338.9073486328125 -468.125,-343.60394287109375 L-468.125,-373.9960632324219 L-468.1250305175781,-373.9960632324219 C-468.1250305175781,-378.6926574707031 -464.31768798828125,-382.5 -459.62109375,-382.5000305175781 " stroke="none" fill="#F2E279" fill-rule="evenodd" stroke-width="0" fill-opacity="1" />
  <text x="33.801021575927734" y="35.284881591796875" dx="0" dy="0" font-family="Segoe UI" font-size="8.249999754130847pt" fill="#000000" style="text-anchor:start" transform="matrix(0.750000 0.000000 0.000000 0.750000 -468.125 -382.5)">Slope</text>
  <path d="M-459.6210632324219,-382.5 L-402.22894287109375,-382.5 L-402.2289733886719,-382.5 C-397.5323791503906,-382.5000305175781 -393.72503662109375,-378.69268798828125 -393.72503662109375,-373.99609375 C-393.72503662109375,-373.99609375 -393.72503662109375,-373.9960632324219 -393.72503662109375,-373.9960632324219 L-393.7250061035156,-373.9960632324219 L-393.7250061035156,-343.60394287109375 L-393.72503662109375,-343.60394287109375 C-393.72503662109375,-338.9073486328125 -397.5323486328125,-335.1000061035156 -402.22894287109375,-335.1000061035156 L-402.22894287109375,-335.1000061035156 L-459.6210632324219,-335.1000061035156 L-459.6210632324219,-335.1000061035156 C-464.3176574707031,-335.1000061035156 -468.125,-338.9073486328125 -468.125,-343.60394287109375 L-468.125,-373.9960632324219 L-468.1250305175781,-373.9960632324219 C-468.1250305175781,-378.6926574707031 -464.31768798828125,-382.5 -459.62109375,-382.5000305175781 " stroke="none" fill="none" stroke-width="0.75" stroke-opacity="0" />
  <path d="M-499.9093017578125,-277.4897155761719 C-499.9093017578125,-264.40057373046875 -516.5643310546875,-253.78970336914062 -537.1092529296875,-253.78970336914062 C-557.654296875,-253.78970336914062 -574.3092651367188,-264.4005432128906 -574.309326171875,-277.48968505859375 L-574.309326171875,-277.48968505859375 C-574.309326171875,-290.578857421875 -557.654296875,-301.189697265625 -537.1093139648438,-301.189697265625 C-516.5643310546875,-301.1897277832031 -499.9093017578125,-290.5788879394531 -499.9093017578125,-277.4897155761719 C-499.9093017578125,-277.4897155761719 -499.9093017578125,-277.4897155761719 -499.9093017578125,-277.4897155761719 " stroke="none" fill="#83CC7C" fill-rule="evenodd" stroke-width="0" fill-opacity="1" />
  <text x="21.54768943786621" y="35.284881591796875" dx="0" dy="0" font-family="Segoe UI" font-size="8.249999754130847pt" fill="#000000" style="text-anchor:start" transform="matrix(0.750000 0.000000 0.000000 0.750000 -574.3092651367188 -301.189697265625)">Slope_Deg</text>
  <path d="M-499.9093017578125,-277.4897155761719 C-499.9093017578125,-264.40057373046875 -516.5643310546875,-253.78970336914062 -537.1092529296875,-253.78970336914062 C-557.654296875,-253.78970336914062 -574.3092651367188,-264.4005432128906 -574.309326171875,-277.48968505859375 L-574.309326171875,-277.48968505859375 C-574.309326171875,-290.578857421875 -557.654296875,-301.189697265625 -537.1093139648438,-301.189697265625 C-516.5643310546875,-301.1897277832031 -499.9093017578125,-290.5788879394531 -499.9093017578125,-277.4897155761719 C-499.9093017578125,-277.4897155761719 -499.9093017578125,-277.4897155761719 -499.9093017578125,-277.4897155761719 " stroke="none" fill="none" stroke-width="0.75" stroke-opacity="0" />
  <path d="M-456.878662109375,-301.7945556640625 L-399.4865417480469,-301.7945556640625 L-399.486572265625,-301.7945556640625 C-394.78997802734375,-301.7945861816406 -390.9826354980469,-297.98724365234375 -390.9826354980469,-293.2906494140625 C-390.9826354980469,-293.2906494140625 -390.9826354980469,-293.2906188964844 -390.9826354980469,-293.2906188964844 L-390.98260498046875,-293.2906188964844 L-390.98260498046875,-262.89849853515625 L-390.9826354980469,-262.89849853515625 C-390.9826354980469,-258.201904296875 -394.7899475097656,-254.39456176757812 -399.4865417480469,-254.39456176757812 L-399.4865417480469,-254.39456176757812 L-456.878662109375,-254.39456176757812 L-456.878662109375,-254.39456176757812 C-461.57525634765625,-254.39456176757812 -465.3825988769531,-258.201904296875 -465.3825988769531,-262.89849853515625 L-465.3825988769531,-293.2906188964844 L-465.38262939453125,-293.2906188964844 C-465.38262939453125,-297.9872131347656 -461.5752868652344,-301.7945556640625 -456.8786926269531,-301.7945861816406 " stroke="none" fill="#F2E279" fill-rule="evenodd" stroke-width="0" fill-opacity="1" />
  <text x="6.122522354125977" y="35.284881591796875" dx="0" dy="0" font-family="Segoe UI" font-size="8.249999754130847pt" fill="#000000" style="text-anchor:start" transform="matrix(0.750000 0.000000 0.000000 0.750000 -465.3825988769531 -301.7945556640625)">Raster Calculator</text>
  <path d="M-456.878662109375,-301.7945556640625 L-399.4865417480469,-301.7945556640625 L-399.486572265625,-301.7945556640625 C-394.78997802734375,-301.7945861816406 -390.9826354980469,-297.98724365234375 -390.9826354980469,-293.2906494140625 C-390.9826354980469,-293.2906494140625 -390.9826354980469,-293.2906188964844 -390.9826354980469,-293.2906188964844 L-390.98260498046875,-293.2906188964844 L-390.98260498046875,-262.89849853515625 L-390.9826354980469,-262.89849853515625 C-390.9826354980469,-258.201904296875 -394.7899475097656,-254.39456176757812 -399.4865417480469,-254.39456176757812 L-399.4865417480469,-254.39456176757812 L-456.878662109375,-254.39456176757812 L-456.878662109375,-254.39456176757812 C-461.57525634765625,-254.39456176757812 -465.3825988769531,-258.201904296875 -465.3825988769531,-262.89849853515625 L-465.3825988769531,-293.2906188964844 L-465.38262939453125,-293.2906188964844 C-465.38262939453125,-297.9872131347656 -461.5752868652344,-301.7945556640625 -456.8786926269531,-301.7945861816406 " stroke="none" fill="none" stroke-width="0.75" stroke-opacity="0" />
  <path d="M-281.804443359375,-357.2073059082031 C-281.804443359375,-344.1181640625 -298.4594421386719,-333.5072937011719 -319.00439453125,-333.5072937011719 C-339.5494079589844,-333.5072937011719 -356.20440673828125,-344.1181335449219 -356.2044372558594,-357.207275390625 L-356.2044372558594,-357.207275390625 C-356.2044372558594,-370.29644775390625 -339.5494384765625,-380.90728759765625 -319.00445556640625,-380.90728759765625 C-298.45947265625,-380.9073181152344 -281.804443359375,-370.2964782714844 -281.804443359375,-357.2073059082031 C-281.804443359375,-357.2073059082031 -281.804443359375,-357.2073059082031 -281.804443359375,-357.2073059082031 " stroke="none" fill="#83CC7C" fill-rule="evenodd" stroke-width="0" fill-opacity="1" />
  <text x="12.614355087280273" y="35.284881591796875" dx="0" dy="0" font-family="Segoe UI" font-size="8.249999754130847pt" fill="#000000" style="text-anchor:start" transform="matrix(0.750000 0.000000 0.000000 0.750000 -356.20440673828125 -380.90728759765625)">Slope_Radians</text>
  <path d="M-281.804443359375,-357.2073059082031 C-281.804443359375,-344.1181640625 -298.4594421386719,-333.5072937011719 -319.00439453125,-333.5072937011719 C-339.5494079589844,-333.5072937011719 -356.20440673828125,-344.1181335449219 -356.2044372558594,-357.207275390625 L-356.2044372558594,-357.207275390625 C-356.2044372558594,-370.29644775390625 -339.5494384765625,-380.90728759765625 -319.00445556640625,-380.90728759765625 C-298.45947265625,-380.9073181152344 -281.804443359375,-370.2964782714844 -281.804443359375,-357.2073059082031 C-281.804443359375,-357.2073059082031 -281.804443359375,-357.2073059082031 -281.804443359375,-357.2073059082031 " stroke="none" fill="none" stroke-width="0.75" stroke-opacity="0" />
  <path d="M-346.152587890625,-301.189697265625 L-288.7604675292969,-301.189697265625 L-288.760498046875,-301.189697265625 C-284.06390380859375,-301.1897277832031 -280.2565612792969,-297.38238525390625 -280.2565612792969,-292.685791015625 C-280.2565612792969,-292.685791015625 -280.2565612792969,-292.6857604980469 -280.2565612792969,-292.6857604980469 L-280.25653076171875,-292.6857604980469 L-280.25653076171875,-262.29364013671875 L-280.2565612792969,-262.29364013671875 C-280.2565612792969,-257.5970458984375 -284.0638732910156,-253.78970336914062 -288.7604675292969,-253.78970336914062 L-288.7604675292969,-253.78970336914062 L-346.152587890625,-253.78970336914062 L-346.152587890625,-253.78970336914062 C-350.84918212890625,-253.78970336914062 -354.6565246582031,-257.5970458984375 -354.6565246582031,-262.29364013671875 L-354.6565246582031,-292.6857604980469 L-354.65655517578125,-292.6857604980469 C-354.65655517578125,-297.3823547363281 -350.8492126464844,-301.189697265625 -346.1526184082031,-301.1897277832031 " stroke="none" fill="#F2E279" fill-rule="evenodd" stroke-width="0" fill-opacity="1" />
  <text x="6.122522354125977" y="27.96988296508789" dx="0" dy="0" font-family="Segoe UI" font-size="8.249999754130847pt" fill="#000000" style="text-anchor:start" transform="matrix(0.750000 0.000000 0.000000 0.750000 -354.6565246582031 -301.189697265625)">Raster Calculator </text>
  <text x="42.36051940917969" y="42.599884033203125" dx="0" dy="0" font-family="Segoe UI" font-size="8.249999754130847pt" fill="#000000" style="text-anchor:start" transform="matrix(0.750000 0.000000 0.000000 0.750000 -354.6565246582031 -301.189697265625)">(2)</text>
  <path d="M-346.152587890625,-301.189697265625 L-288.7604675292969,-301.189697265625 L-288.760498046875,-301.189697265625 C-284.06390380859375,-301.1897277832031 -280.2565612792969,-297.38238525390625 -280.2565612792969,-292.685791015625 C-280.2565612792969,-292.685791015625 -280.2565612792969,-292.6857604980469 -280.2565612792969,-292.6857604980469 L-280.25653076171875,-292.6857604980469 L-280.25653076171875,-262.29364013671875 L-280.2565612792969,-262.29364013671875 C-280.2565612792969,-257.5970458984375 -284.0638732910156,-253.78970336914062 -288.7604675292969,-253.78970336914062 L-288.7604675292969,-253.78970336914062 L-346.152587890625,-253.78970336914062 L-346.152587890625,-253.78970336914062 C-350.84918212890625,-253.78970336914062 -354.6565246582031,-257.5970458984375 -354.6565246582031,-262.29364013671875 L-354.6565246582031,-292.6857604980469 L-354.65655517578125,-292.6857604980469 C-354.65655517578125,-297.3823547363281 -350.8492126464844,-301.189697265625 -346.1526184082031,-301.1897277832031 " stroke="none" fill="none" stroke-width="0.75" stroke-opacity="0" />
  <path d="M-182.06626892089844,-356.6024475097656 C-182.06626892089844,-343.5133056640625 -198.7212677001953,-332.9024353027344 -219.2662353515625,-332.9024353027344 C-239.8112335205078,-332.9024353027344 -256.46624755859375,-343.5132751464844 -256.4662780761719,-356.6024169921875 L-256.4662780761719,-356.6024169921875 C-256.4662780761719,-369.69158935546875 -239.811279296875,-380.30242919921875 -219.26629638671875,-380.30242919921875 C-198.72129821777344,-380.3024597167969 -182.0662841796875,-369.6916198730469 -182.06626892089844,-356.6024475097656 C-182.06626892089844,-356.6024475097656 -182.06626892089844,-356.6024475097656 -182.06626892089844,-356.6024475097656 " stroke="none" fill="#83CC7C" fill-rule="evenodd" stroke-width="0" fill-opacity="1" />
  <text x="9.072355270385742" y="35.284881591796875" dx="0" dy="0" font-family="Segoe UI" font-size="8.249999754130847pt" fill="#000000" style="text-anchor:start" transform="matrix(0.750000 0.000000 0.000000 0.750000 -256.46624755859375 -380.30242919921875)">Walking_speed</text>
  <path d="M-182.06626892089844,-356.6024475097656 C-182.06626892089844,-343.5133056640625 -198.7212677001953,-332.9024353027344 -219.2662353515625,-332.9024353027344 C-239.8112335205078,-332.9024353027344 -256.46624755859375,-343.5132751464844 -256.4662780761719,-356.6024169921875 L-256.4662780761719,-356.6024169921875 C-256.4662780761719,-369.69158935546875 -239.811279296875,-380.30242919921875 -219.26629638671875,-380.30242919921875 C-198.72129821777344,-380.3024597167969 -182.0662841796875,-369.6916198730469 -182.06626892089844,-356.6024475097656 C-182.06626892089844,-356.6024475097656 -182.06626892089844,-356.6024475097656 -182.06626892089844,-356.6024475097656 " stroke="none" fill="none" stroke-width="0.75" stroke-opacity="0" />
  <path d="M-239.13624572753906,-303.0848388671875 L-181.74412536621094,-303.0848388671875 L-181.744140625,-303.0848388671875 C-177.0475616455078,-303.0848693847656 -173.24020385742188,-299.27752685546875 -173.24020385742188,-294.5809326171875 C-173.24020385742188,-294.5809326171875 -173.24020385742188,-294.5809020996094 -173.24020385742188,-294.5809020996094 L-173.2401885986328,-294.5809020996094 L-173.2401885986328,-264.18878173828125 L-173.24020385742188,-264.18878173828125 C-173.24020385742188,-259.4921875 -177.0475311279297,-255.68484497070312 -181.74412536621094,-255.68484497070312 L-181.74412536621094,-255.68484497070312 L-239.13624572753906,-255.68484497070312 L-239.13624572753906,-255.68484497070312 C-243.8328399658203,-255.68484497070312 -247.6401824951172,-259.4921875 -247.6401824951172,-264.18878173828125 L-247.6401824951172,-294.5809020996094 L-247.64019775390625,-294.5809020996094 C-247.64019775390625,-299.2774963378906 -243.83285522460938,-303.0848388671875 -239.13626098632812,-303.0848693847656 " stroke="none" fill="#F2E279" fill-rule="evenodd" stroke-width="0" fill-opacity="1" />
  <text x="36.38768768310547" y="35.284881591796875" dx="0" dy="0" font-family="Segoe UI" font-size="8.249999754130847pt" fill="#000000" style="text-anchor:start" transform="matrix(0.750000 0.000000 0.000000 0.750000 -247.6401824951172 -303.0848388671875)">Slice</text>
  <path d="M-239.13624572753906,-303.0848388671875 L-181.74412536621094,-303.0848388671875 L-181.744140625,-303.0848388671875 C-177.0475616455078,-303.0848693847656 -173.24020385742188,-299.27752685546875 -173.24020385742188,-294.5809326171875 C-173.24020385742188,-294.5809326171875 -173.24020385742188,-294.5809020996094 -173.24020385742188,-294.5809020996094 L-173.2401885986328,-294.5809020996094 L-173.2401885986328,-264.18878173828125 L-173.24020385742188,-264.18878173828125 C-173.24020385742188,-259.4921875 -177.0475311279297,-255.68484497070312 -181.74412536621094,-255.68484497070312 L-181.74412536621094,-255.68484497070312 L-239.13624572753906,-255.68484497070312 L-239.13624572753906,-255.68484497070312 C-243.8328399658203,-255.68484497070312 -247.6401824951172,-259.4921875 -247.6401824951172,-264.18878173828125 L-247.6401824951172,-294.5809020996094 L-247.64019775390625,-294.5809020996094 C-247.64019775390625,-299.2774963378906 -243.83285522460938,-303.0848388671875 -239.13626098632812,-303.0848693847656 " stroke="none" fill="none" stroke-width="0.75" stroke-opacity="0" />
  <path d="M-81.64261627197266,-351.90484619140625 C-81.64261627197266,-338.8157043457031 -98.29762268066406,-328.204833984375 -118.84259033203125,-328.204833984375 C-139.38758850097656,-328.204833984375 -156.0426025390625,-338.815673828125 -156.04261779785156,-351.9048156738281 L-156.04261779785156,-351.9048156738281 C-156.04263305664062,-364.9939880371094 -139.38763427734375,-375.6048278808594 -118.84264373779297,-375.6048278808594 C-98.29765319824219,-375.6048583984375 -81.64263916015625,-364.9940185546875 -81.64261627197266,-351.90484619140625 C-81.64261627197266,-351.90484619140625 -81.64261627197266,-351.90484619140625 -81.64261627197266,-351.90484619140625 " stroke="none" fill="#83CC7C" fill-rule="evenodd" stroke-width="0" fill-opacity="1" />
  <text x="3.6943554878234863" y="35.284881591796875" dx="0" dy="0" font-family="Segoe UI" font-size="8.249999754130847pt" fill="#000000" style="text-anchor:start" transform="matrix(0.750000 0.000000 0.000000 0.750000 -156.0426025390625 -375.6048278808594)">Sliced_walking_s</text>
  <text x="81.90652465820312" y="35.284881591796875" dx="0" dy="0" font-family="Segoe UI" font-size="8.249999754130847pt" fill="#000000" style="text-anchor:start" transform="matrix(0.750000 0.000000 0.000000 0.750000 -156.0426025390625 -375.6048278808594)"> ...</text>
  <path d="M-81.64261627197266,-351.90484619140625 C-81.64261627197266,-338.8157043457031 -98.29762268066406,-328.204833984375 -118.84259033203125,-328.204833984375 C-139.38758850097656,-328.204833984375 -156.0426025390625,-338.815673828125 -156.04261779785156,-351.9048156738281 L-156.04261779785156,-351.9048156738281 C-156.04263305664062,-364.9939880371094 -139.38763427734375,-375.6048278808594 -118.84264373779297,-375.6048278808594 C-98.29765319824219,-375.6048583984375 -81.64263916015625,-364.9940185546875 -81.64261627197266,-351.90484619140625 C-81.64261627197266,-351.90484619140625 -81.64261627197266,-351.90484619140625 -81.64261627197266,-351.90484619140625 " stroke="none" fill="none" stroke-width="0.75" stroke-opacity="0" />
  <path d="M-137.14047241210938,-305.08062744140625 L-79.74835205078125,-305.08062744140625 L-79.74836730957031,-305.08062744140625 C-75.0517807006836,-305.0806579589844 -71.24442291259766,-301.2733154296875 -71.24442291259766,-296.57672119140625 C-71.24442291259766,-296.57672119140625 -71.24442291259766,-296.5766906738281 -71.24442291259766,-296.5766906738281 L-71.24441528320312,-296.5766906738281 L-71.24441528320312,-266.1845703125 L-71.24442291259766,-266.1845703125 C-71.24442291259766,-261.48797607421875 -75.0517578125,-257.6806335449219 -79.74835205078125,-257.6806335449219 L-79.74835205078125,-257.6806335449219 L-137.14047241210938,-257.6806335449219 L-137.14047241210938,-257.6806335449219 C-141.83706665039062,-257.6806335449219 -145.6444091796875,-261.48797607421875 -145.6444091796875,-266.1845703125 L-145.6444091796875,-296.5766906738281 L-145.64442443847656,-296.5766906738281 C-145.64442443847656,-301.2732849121094 -141.8370819091797,-305.08062744140625 -137.14048767089844,-305.0806579589844 " stroke="none" fill="#F2E279" fill-rule="evenodd" stroke-width="0" fill-opacity="1" />
  <text x="6.122522354125977" y="27.96988296508789" dx="0" dy="0" font-family="Segoe UI" font-size="8.249999754130847pt" fill="#000000" style="text-anchor:start" transform="matrix(0.750000 0.000000 0.000000 0.750000 -145.6444091796875 -305.08062744140625)">Raster Calculator </text>
  <text x="42.36051940917969" y="42.599884033203125" dx="0" dy="0" font-family="Segoe UI" font-size="8.249999754130847pt" fill="#000000" style="text-anchor:start" transform="matrix(0.750000 0.000000 0.000000 0.750000 -145.6444091796875 -305.08062744140625)">(3)</text>
  <path d="M-137.14047241210938,-305.08062744140625 L-79.74835205078125,-305.08062744140625 L-79.74836730957031,-305.08062744140625 C-75.0517807006836,-305.0806579589844 -71.24442291259766,-301.2733154296875 -71.24442291259766,-296.57672119140625 C-71.24442291259766,-296.57672119140625 -71.24442291259766,-296.5766906738281 -71.24442291259766,-296.5766906738281 L-71.24441528320312,-296.5766906738281 L-71.24441528320312,-266.1845703125 L-71.24442291259766,-266.1845703125 C-71.24442291259766,-261.48797607421875 -75.0517578125,-257.6806335449219 -79.74835205078125,-257.6806335449219 L-79.74835205078125,-257.6806335449219 L-137.14047241210938,-257.6806335449219 L-137.14047241210938,-257.6806335449219 C-141.83706665039062,-257.6806335449219 -145.6444091796875,-261.48797607421875 -145.6444091796875,-266.1845703125 L-145.6444091796875,-296.5766906738281 L-145.64442443847656,-296.5766906738281 C-145.64442443847656,-301.2732849121094 -141.8370819091797,-305.08062744140625 -137.14048767089844,-305.0806579589844 " stroke="none" fill="none" stroke-width="0.75" stroke-opacity="0" />
  <path d="M-498.2747802734375,-186.88487243652344 C-498.2747802734375,-173.79571533203125 -514.9298095703125,-163.1848602294922 -535.4747314453125,-163.1848602294922 C-556.019775390625,-163.1848602294922 -572.6747436523438,-173.7957000732422 -572.6748046875,-186.8848419189453 L-572.6748046875,-186.8848419189453 C-572.6748046875,-199.9739990234375 -556.019775390625,-210.58485412597656 -535.4747924804688,-210.58485412597656 C-514.9298095703125,-210.58486938476562 -498.2747802734375,-199.97402954101562 -498.2747802734375,-186.88485717773438 C-498.2747802734375,-186.88485717773438 -498.2747802734375,-186.88485717773438 -498.2747802734375,-186.88485717773438 " stroke="none" fill="#83CC7C" fill-rule="evenodd" stroke-width="0" fill-opacity="1" />
  <text x="20.69435691833496" y="35.284881591796875" dx="0" dy="0" font-family="Segoe UI" font-size="8.249999754130847pt" fill="#000000" style="text-anchor:start" transform="matrix(0.750000 0.000000 0.000000 0.750000 -572.6747436523438 -210.58485412597656)">Slope_Cost</text>
  <path d="M-498.2747802734375,-186.88487243652344 C-498.2747802734375,-173.79571533203125 -514.9298095703125,-163.1848602294922 -535.4747314453125,-163.1848602294922 C-556.019775390625,-163.1848602294922 -572.6747436523438,-173.7957000732422 -572.6748046875,-186.8848419189453 L-572.6748046875,-186.8848419189453 C-572.6748046875,-199.9739990234375 -556.019775390625,-210.58485412597656 -535.4747924804688,-210.58485412597656 C-514.9298095703125,-210.58486938476562 -498.2747802734375,-199.97402954101562 -498.2747802734375,-186.88485717773438 C-498.2747802734375,-186.88485717773438 -498.2747802734375,-186.88485717773438 -498.2747802734375,-186.88485717773438 " stroke="none" fill="none" stroke-width="0.75" stroke-opacity="0" />
  <path d="M-506.2065734863281,-109.41675567626953 L-448.814453125,-109.41675567626953 L-448.8144836425781,-109.41675567626953 C-444.1178894042969,-109.41676330566406 -440.310546875,-105.60942840576172 -440.310546875,-100.91282653808594 C-440.310546875,-100.91282653808594 -440.310546875,-100.9128189086914 -440.310546875,-100.9128189086914 L-440.3105163574219,-100.9128189086914 L-440.3105163574219,-70.52069091796875 L-440.310546875,-70.52069854736328 C-440.310546875,-65.82410430908203 -444.11785888671875,-62.016761779785156 -448.814453125,-62.01675796508789 L-448.814453125,-62.01675796508789 L-506.2065734863281,-62.01675796508789 L-506.2065734863281,-62.01675796508789 C-510.9031677246094,-62.01675796508789 -514.7105102539062,-65.8240966796875 -514.7105102539062,-70.52069091796875 L-514.7105102539062,-100.9128189086914 L-514.7105712890625,-100.9128189086914 C-514.7105712890625,-105.60941314697266 -510.9031982421875,-109.41675567626953 -506.20660400390625,-109.41676330566406 " stroke="none" fill="#F2E279" fill-rule="evenodd" stroke-width="0" fill-opacity="1" />
  <text x="24.12202262878418" y="35.284881591796875" dx="0" dy="0" font-family="Segoe UI" font-size="8.249999754130847pt" fill="#000000" style="text-anchor:start" transform="matrix(0.750000 0.000000 0.000000 0.750000 -514.7105102539062 -109.41675567626953)">Reclassify</text>
  <path d="M-506.2065734863281,-109.41675567626953 L-448.814453125,-109.41675567626953 L-448.8144836425781,-109.41675567626953 C-444.1178894042969,-109.41676330566406 -440.310546875,-105.60942840576172 -440.310546875,-100.91282653808594 C-440.310546875,-100.91282653808594 -440.310546875,-100.9128189086914 -440.310546875,-100.9128189086914 L-440.3105163574219,-100.9128189086914 L-440.3105163574219,-70.52069091796875 L-440.310546875,-70.52069854736328 C-440.310546875,-65.82410430908203 -444.11785888671875,-62.016761779785156 -448.814453125,-62.01675796508789 L-448.814453125,-62.01675796508789 L-506.2065734863281,-62.01675796508789 L-506.2065734863281,-62.01675796508789 C-510.9031677246094,-62.01675796508789 -514.7105102539062,-65.8240966796875 -514.7105102539062,-70.52069091796875 L-514.7105102539062,-100.9128189086914 L-514.7105712890625,-100.9128189086914 C-514.7105712890625,-105.60941314697266 -510.9031982421875,-109.41675567626953 -506.20660400390625,-109.41676330566406 " stroke="none" fill="none" stroke-width="0.75" stroke-opacity="0" />
  <path d="M-345.1602478027344,-83.80001068115234 C-345.1602478027344,-70.71086120605469 -361.81524658203125,-60.100006103515625 -382.3601989746094,-60.10000228881836 C-402.90521240234375,-60.099998474121094 -419.5602111816406,-70.71084594726562 -419.56024169921875,-83.79998779296875 L-419.56024169921875,-83.79998779296875 C-419.56024169921875,-96.8891372680664 -402.9052429199219,-107.49999237060547 -382.3602600097656,-107.5 C-361.8152770996094,-107.50001525878906 -345.1602478027344,-96.88916778564453 -345.1602478027344,-83.80000305175781 C-345.1602478027344,-83.80000305175781 -345.1602478027344,-83.80000305175781 -345.1602478027344,-83.80000305175781 " stroke="none" fill="#83CC7C" fill-rule="evenodd" stroke-width="0" fill-opacity="1" />
  <text x="6.537689208984375" y="35.284881591796875" dx="0" dy="0" font-family="Segoe UI" font-size="8.249999754130847pt" fill="#000000" style="text-anchor:start" transform="matrix(0.750000 0.000000 0.000000 0.750000 -419.5602111816406 -107.5)">Land_Cover_Cost</text>
  <path d="M-345.1602478027344,-83.80001068115234 C-345.1602478027344,-70.71086120605469 -361.81524658203125,-60.100006103515625 -382.3601989746094,-60.10000228881836 C-402.90521240234375,-60.099998474121094 -419.5602111816406,-70.71084594726562 -419.56024169921875,-83.79998779296875 L-419.56024169921875,-83.79998779296875 C-419.56024169921875,-96.8891372680664 -402.9052429199219,-107.49999237060547 -382.3602600097656,-107.5 C-361.8152770996094,-107.50001525878906 -345.1602478027344,-96.88916778564453 -345.1602478027344,-83.80000305175781 C-345.1602478027344,-83.80000305175781 -345.1602478027344,-83.80000305175781 -345.1602478027344,-83.80000305175781 " stroke="none" fill="none" stroke-width="0.75" stroke-opacity="0" />
  <path d="M-309.9579772949219,-106.74971771240234 L-252.56585693359375,-106.74971771240234 L-252.5658721923828,-106.74971771240234 C-247.86929321289062,-106.74972534179688 -244.0619354248047,-102.94239044189453 -244.0619354248047,-98.24578857421875 C-244.0619354248047,-98.24578857421875 -244.0619354248047,-98.24578094482422 -244.0619354248047,-98.24578094482422 L-244.06192016601562,-98.24578094482422 L-244.06192016601562,-67.85365295410156 L-244.0619354248047,-67.8536605834961 C-244.0619354248047,-63.157066345214844 -247.8692626953125,-59.34972381591797 -252.56585693359375,-59.3497200012207 L-252.56585693359375,-59.3497200012207 L-309.9579772949219,-59.3497200012207 L-309.9579772949219,-59.3497200012207 C-314.6545715332031,-59.3497200012207 -318.4619140625,-63.15705871582031 -318.4619140625,-67.85365295410156 L-318.4619140625,-98.24578094482422 L-318.4619445800781,-98.24578094482422 C-318.4619445800781,-102.94237518310547 -314.65460205078125,-106.74971771240234 -309.9580078125,-106.74972534179688 " stroke="none" fill="#F2E279" fill-rule="evenodd" stroke-width="0" fill-opacity="1" />
  <text x="9.645689010620117" y="35.284881591796875" dx="0" dy="0" font-family="Segoe UI" font-size="8.249999754130847pt" fill="#000000" style="text-anchor:start" transform="matrix(0.750000 0.000000 0.000000 0.750000 -318.4619140625 -106.74971771240234)">Weighted Sum</text>
  <path d="M-309.9579772949219,-106.74971771240234 L-252.56585693359375,-106.74971771240234 L-252.5658721923828,-106.74971771240234 C-247.86929321289062,-106.74972534179688 -244.0619354248047,-102.94239044189453 -244.0619354248047,-98.24578857421875 C-244.0619354248047,-98.24578857421875 -244.0619354248047,-98.24578094482422 -244.0619354248047,-98.24578094482422 L-244.06192016601562,-98.24578094482422 L-244.06192016601562,-67.85365295410156 L-244.0619354248047,-67.8536605834961 C-244.0619354248047,-63.157066345214844 -247.8692626953125,-59.34972381591797 -252.56585693359375,-59.3497200012207 L-252.56585693359375,-59.3497200012207 L-309.9579772949219,-59.3497200012207 L-309.9579772949219,-59.3497200012207 C-314.6545715332031,-59.3497200012207 -318.4619140625,-63.15705871582031 -318.4619140625,-67.85365295410156 L-318.4619140625,-98.24578094482422 L-318.4619445800781,-98.24578094482422 C-318.4619445800781,-102.94237518310547 -314.65460205078125,-106.74971771240234 -309.9580078125,-106.74972534179688 " stroke="none" fill="none" stroke-width="0.75" stroke-opacity="0" />
  <path d="M-139.32785034179688,-81.13296508789062 C-139.32785034179688,-68.04381561279297 -155.98284912109375,-57.432960510253906 -176.52781677246094,-57.43295669555664 C-197.07281494140625,-57.432952880859375 -213.7278289794922,-68.0438003540039 -213.72784423828125,-81.13294219970703 L-213.72784423828125,-81.13294219970703 C-213.7278594970703,-94.22209167480469 -197.07286071777344,-104.83294677734375 -176.5278778076172,-104.83295440673828 C-155.98287963867188,-104.83296966552734 -139.32786560058594,-94.22212219238281 -139.32785034179688,-81.1329574584961 C-139.32785034179688,-81.1329574584961 -139.32785034179688,-81.1329574584961 -139.32785034179688,-81.1329574584961 " stroke="none" fill="#83CC7C" fill-rule="evenodd" stroke-width="0" fill-opacity="1" />
  <text x="5.897522449493408" y="35.284881591796875" dx="0" dy="0" font-family="Segoe UI" font-size="8.249999754130847pt" fill="#000000" style="text-anchor:start" transform="matrix(0.750000 0.000000 0.000000 0.750000 -213.7278289794922 -104.83295440673828)">Final_Cost_Raster</text>
  <path d="M-139.32785034179688,-81.13296508789062 C-139.32785034179688,-68.04381561279297 -155.98284912109375,-57.432960510253906 -176.52781677246094,-57.43295669555664 C-197.07281494140625,-57.432952880859375 -213.7278289794922,-68.0438003540039 -213.72784423828125,-81.13294219970703 L-213.72784423828125,-81.13294219970703 C-213.7278594970703,-94.22209167480469 -197.07286071777344,-104.83294677734375 -176.5278778076172,-104.83295440673828 C-155.98287963867188,-104.83296966552734 -139.32786560058594,-94.22212219238281 -139.32785034179688,-81.1329574584961 C-139.32785034179688,-81.1329574584961 -139.32785034179688,-81.1329574584961 -139.32785034179688,-81.1329574584961 " stroke="none" fill="none" stroke-width="0.75" stroke-opacity="0" />
  <path d="M-508.8681945800781,13.822832107543945 L-451.47607421875,13.822832107543945 L-451.4761047363281,13.822832107543945 C-446.7795104980469,13.822824478149414 -442.97216796875,17.630159378051758 -442.97216796875,22.326765060424805 C-442.97216796875,22.326766967773438 -442.97216796875,22.32676887512207 -442.97216796875,22.326770782470703 L-442.9721374511719,22.32676887512207 L-442.9721374511719,52.718894958496094 L-442.97216796875,52.71888732910156 C-442.97216796875,57.41548156738281 -446.77947998046875,61.22282409667969 -451.47607421875,61.22282791137695 L-451.47607421875,61.22282791137695 L-508.8681945800781,61.22282791137695 L-508.8681945800781,61.22282791137695 C-513.5648193359375,61.22282791137695 -517.3721313476562,57.415489196777344 -517.3721313476562,52.718894958496094 L-517.3721313476562,22.32676887512207 L-517.3721923828125,22.326772689819336 C-517.3721923828125,17.630178451538086 -513.5648193359375,13.822834968566895 -508.86822509765625,13.822831153869629 " stroke="none" fill="#F2E279" fill-rule="evenodd" stroke-width="0" fill-opacity="1" />
  <text x="13.857022285461426" y="35.284881591796875" dx="0" dy="0" font-family="Segoe UI" font-size="8.249999754130847pt" fill="#000000" style="text-anchor:start" transform="matrix(0.750000 0.000000 0.000000 0.750000 -517.3721313476562 13.822832107543945)">Cost Distance</text>
  <path d="M-508.8681945800781,13.822832107543945 L-451.47607421875,13.822832107543945 L-451.4761047363281,13.822832107543945 C-446.7795104980469,13.822824478149414 -442.97216796875,17.630159378051758 -442.97216796875,22.326765060424805 C-442.97216796875,22.326766967773438 -442.97216796875,22.32676887512207 -442.97216796875,22.326770782470703 L-442.9721374511719,22.32676887512207 L-442.9721374511719,52.718894958496094 L-442.97216796875,52.71888732910156 C-442.97216796875,57.41548156738281 -446.77947998046875,61.22282409667969 -451.47607421875,61.22282791137695 L-451.47607421875,61.22282791137695 L-508.8681945800781,61.22282791137695 L-508.8681945800781,61.22282791137695 C-513.5648193359375,61.22282791137695 -517.3721313476562,57.415489196777344 -517.3721313476562,52.718894958496094 L-517.3721313476562,22.32676887512207 L-517.3721923828125,22.326772689819336 C-517.3721923828125,17.630178451538086 -513.5648193359375,13.822834968566895 -508.86822509765625,13.822831153869629 " stroke="none" fill="none" stroke-width="0.75" stroke-opacity="0" />
  <path d="M-333.1771545410156,36.915283203125 C-333.1771545410156,50.00442886352539 -349.8321533203125,60.61528396606445 -370.3771057128906,60.61528778076172 C-390.922119140625,60.615291595458984 -407.5771179199219,50.00444793701172 -407.5771484375,36.915306091308594 L-407.5771484375,36.91530990600586 C-407.5771484375,23.826160430908203 -390.9221496582031,13.215300559997559 -370.3771667480469,13.215291976928711 C-349.8321838378906,13.21528148651123 -333.1771545410156,23.82612419128418 -333.1771545410156,36.91529083251953 C-333.1771545410156,36.91529083251953 -333.1771545410156,36.91529083251953 -333.1771545410156,36.91529083251953 " stroke="none" fill="#83CC7C" fill-rule="evenodd" stroke-width="0" fill-opacity="1" />
  <text x="13.083688735961914" y="35.284881591796875" dx="0" dy="0" font-family="Segoe UI" font-size="8.249999754130847pt" fill="#000000" style="text-anchor:start" transform="matrix(0.750000 0.000000 0.000000 0.750000 -407.5771179199219 13.215291976928711)">Cost_Distance</text>
  <path d="M-333.1771545410156,36.915283203125 C-333.1771545410156,50.00442886352539 -349.8321533203125,60.61528396606445 -370.3771057128906,60.61528778076172 C-390.922119140625,60.615291595458984 -407.5771179199219,50.00444793701172 -407.5771484375,36.915306091308594 L-407.5771484375,36.91530990600586 C-407.5771484375,23.826160430908203 -390.9221496582031,13.215300559997559 -370.3771667480469,13.215291976928711 C-349.8321838378906,13.21528148651123 -333.1771545410156,23.82612419128418 -333.1771545410156,36.91529083251953 C-333.1771545410156,36.91529083251953 -333.1771545410156,36.91529083251953 -333.1771545410156,36.91529083251953 " stroke="none" fill="none" stroke-width="0.75" stroke-opacity="0" />
  <path d="M-441.95037841796875,123.10942077636719 C-441.95037841796875,136.1985626220703 -458.6053771972656,146.80941772460938 -479.15032958984375,146.80941772460938 C-499.6953430175781,146.80943298339844 -516.350341796875,136.19857788085938 -516.3504028320312,123.10944366455078 L-516.3504028320312,123.10944366455078 C-516.3504028320312,110.02029418945312 -499.69537353515625,99.40943908691406 -479.150390625,99.40943145751953 C-458.60540771484375,99.40941619873047 -441.95037841796875,110.020263671875 -441.95037841796875,123.10942840576172 C-441.95037841796875,123.10942840576172 -441.95037841796875,123.10942840576172 -441.95037841796875,123.10942840576172 " stroke="none" fill="#83CC7C" fill-rule="evenodd" stroke-width="0" fill-opacity="1" />
  <text x="27.26085662841797" y="35.284881591796875" dx="0" dy="0" font-family="Segoe UI" font-size="8.249999754130847pt" fill="#000000" style="text-anchor:start" transform="matrix(0.750000 0.000000 0.000000 0.750000 -516.350341796875 99.40943145751953)">backlink</text>
  <path d="M-441.95037841796875,123.10942077636719 C-441.95037841796875,136.1985626220703 -458.6053771972656,146.80941772460938 -479.15032958984375,146.80941772460938 C-499.6953430175781,146.80943298339844 -516.350341796875,136.19857788085938 -516.3504028320312,123.10944366455078 L-516.3504028320312,123.10944366455078 C-516.3504028320312,110.02029418945312 -499.69537353515625,99.40943908691406 -479.150390625,99.40943145751953 C-458.60540771484375,99.40941619873047 -441.95037841796875,110.020263671875 -441.95037841796875,123.10942840576172 C-441.95037841796875,123.10942840576172 -441.95037841796875,123.10942840576172 -441.95037841796875,123.10942840576172 " stroke="none" fill="none" stroke-width="0.75" stroke-opacity="0" />
  <path d="M-263.77740478515625,10.343971252441406 L-206.38528442382812,10.343971252441406 L-206.3852996826172,10.343971252441406 C-201.688720703125,10.343963623046875 -197.88136291503906,14.151299476623535 -197.88136291503906,18.847904205322266 C-197.88136291503906,18.8479061126709 -197.88136291503906,18.84790802001953 -197.88136291503906,18.847909927368164 L-197.88134765625,18.84790802001953 L-197.88134765625,49.24003601074219 L-197.88136291503906,49.240028381347656 C-197.88136291503906,53.936622619628906 -201.68869018554688,57.74396514892578 -206.38528442382812,57.74396896362305 L-206.38528442382812,57.74396896362305 L-263.77740478515625,57.74396896362305 L-263.77740478515625,57.74396896362305 C-268.4739990234375,57.74396896362305 -272.2813415527344,53.93663024902344 -272.2813415527344,49.24003601074219 L-272.2813415527344,18.84790802001953 L-272.2813720703125,18.847911834716797 C-272.2813720703125,14.151318550109863 -268.4740295410156,10.343974113464355 -263.7774353027344,10.34397029876709 " stroke="none" fill="#F2E279" fill-rule="evenodd" stroke-width="0" fill-opacity="1" />
  <text x="23.903690338134766" y="35.284881591796875" dx="0" dy="0" font-family="Segoe UI" font-size="8.249999754130847pt" fill="#000000" style="text-anchor:start" transform="matrix(0.750000 0.000000 0.000000 0.750000 -272.2813415527344 10.343971252441406)">Cost Path</text>
  <path d="M-263.77740478515625,10.343971252441406 L-206.38528442382812,10.343971252441406 L-206.3852996826172,10.343971252441406 C-201.688720703125,10.343963623046875 -197.88136291503906,14.151299476623535 -197.88136291503906,18.847904205322266 C-197.88136291503906,18.8479061126709 -197.88136291503906,18.84790802001953 -197.88136291503906,18.847909927368164 L-197.88134765625,18.84790802001953 L-197.88134765625,49.24003601074219 L-197.88136291503906,49.240028381347656 C-197.88136291503906,53.936622619628906 -201.68869018554688,57.74396514892578 -206.38528442382812,57.74396896362305 L-206.38528442382812,57.74396896362305 L-263.77740478515625,57.74396896362305 L-263.77740478515625,57.74396896362305 C-268.4739990234375,57.74396896362305 -272.2813415527344,53.93663024902344 -272.2813415527344,49.24003601074219 L-272.2813415527344,18.84790802001953 L-272.2813720703125,18.847911834716797 C-272.2813720703125,14.151318550109863 -268.4740295410156,10.343974113464355 -263.7774353027344,10.34397029876709 " stroke="none" fill="none" stroke-width="0.75" stroke-opacity="0" />
  <path d="M-341.3240051269531,193.80459594726562 C-341.3240051269531,206.8937530517578 -357.97900390625,217.50460815429688 -378.5239562988281,217.50460815429688 C-399.0689697265625,217.50460815429688 -415.7239685058594,206.89376831054688 -415.7239990234375,193.80462646484375 L-415.7239990234375,193.80462646484375 C-415.7239990234375,180.71546936035156 -399.0690002441406,170.1046142578125 -378.5240173339844,170.1046142578125 C-357.9790344238281,170.10459899902344 -341.3240051269531,180.71543884277344 -341.3240051269531,193.8046112060547 C-341.3240051269531,193.8046112060547 -341.3240051269531,193.8046112060547 -341.3240051269531,193.8046112060547 " stroke="none" fill="#83CC7C" fill-rule="evenodd" stroke-width="0" fill-opacity="1" />
  <text x="9.197689056396484" y="35.284881591796875" dx="0" dy="0" font-family="Segoe UI" font-size="8.249999754130847pt" fill="#000000" style="text-anchor:start" transform="matrix(0.750000 0.000000 0.000000 0.750000 -415.7239685058594 170.1046142578125)">Least_Cost_Path</text>
  <path d="M-341.3240051269531,193.80459594726562 C-341.3240051269531,206.8937530517578 -357.97900390625,217.50460815429688 -378.5239562988281,217.50460815429688 C-399.0689697265625,217.50460815429688 -415.7239685058594,206.89376831054688 -415.7239990234375,193.80462646484375 L-415.7239990234375,193.80462646484375 C-415.7239990234375,180.71546936035156 -399.0690002441406,170.1046142578125 -378.5240173339844,170.1046142578125 C-357.9790344238281,170.10459899902344 -341.3240051269531,180.71543884277344 -341.3240051269531,193.8046112060547 C-341.3240051269531,193.8046112060547 -341.3240051269531,193.8046112060547 -341.3240051269531,193.8046112060547 " stroke="none" fill="none" stroke-width="0.75" stroke-opacity="0" />
  <path d="M-254.00115966796875,84.17559814453125 L-196.60903930664062,84.17559814453125 L-196.6090545654297,84.17559814453125 C-191.9124755859375,84.17559051513672 -188.10511779785156,87.98292541503906 -188.10511779785156,92.67952728271484 C-188.10511779785156,92.67952728271484 -188.10511779785156,92.67953491210938 -188.10511779785156,92.67953491210938 L-188.1051025390625,92.67953491210938 L-188.1051025390625,123.07166290283203 L-188.10511779785156,123.0716552734375 C-188.10511779785156,127.76824951171875 -191.91244506835938,131.57559204101562 -196.60903930664062,131.57559204101562 L-196.60903930664062,131.57559204101562 L-254.00115966796875,131.57559204101562 L-254.00115966796875,131.57559204101562 C-258.69775390625,131.57559204101562 -262.5050964355469,127.76825714111328 -262.5050964355469,123.07166290283203 L-262.5050964355469,92.67953491210938 L-262.505126953125,92.67953491210938 C-262.505126953125,87.98294067382812 -258.6977844238281,84.17559814453125 -254.0011749267578,84.17559051513672 " stroke="none" fill="#F2E279" fill-rule="evenodd" stroke-width="0" fill-opacity="1" />
  <text x="5.099189281463623" y="35.284881591796875" dx="0" dy="0" font-family="Segoe UI" font-size="8.249999754130847pt" fill="#000000" style="text-anchor:start" transform="matrix(0.750000 0.000000 0.000000 0.750000 -262.5050964355469 84.17559814453125)">Raster to Polyline</text>
  <path d="M-254.00115966796875,84.17559814453125 L-196.60903930664062,84.17559814453125 L-196.6090545654297,84.17559814453125 C-191.9124755859375,84.17559051513672 -188.10511779785156,87.98292541503906 -188.10511779785156,92.67952728271484 C-188.10511779785156,92.67952728271484 -188.10511779785156,92.67953491210938 -188.10511779785156,92.67953491210938 L-188.1051025390625,92.67953491210938 L-188.1051025390625,123.07166290283203 L-188.10511779785156,123.0716552734375 C-188.10511779785156,127.76824951171875 -191.91244506835938,131.57559204101562 -196.60903930664062,131.57559204101562 L-196.60903930664062,131.57559204101562 L-254.00115966796875,131.57559204101562 L-254.00115966796875,131.57559204101562 C-258.69775390625,131.57559204101562 -262.5050964355469,127.76825714111328 -262.5050964355469,123.07166290283203 L-262.5050964355469,92.67953491210938 L-262.505126953125,92.67953491210938 C-262.505126953125,87.98294067382812 -258.6977844238281,84.17559814453125 -254.0011749267578,84.17559051513672 " stroke="none" fill="none" stroke-width="0.75" stroke-opacity="0" />
  <path d="M-83.40888214111328,107.8755874633789 C-83.40888214111328,120.96473693847656 -100.06388854980469,131.57559204101562 -120.60885620117188,131.57559204101562 C-141.1538543701172,131.57559204101562 -157.80886840820312,120.96475219726562 -157.8088836669922,107.8756103515625 L-157.8088836669922,107.8756103515625 C-157.80889892578125,94.78646087646484 -141.15390014648438,84.17560577392578 -120.6089096069336,84.17559814453125 C-100.06391906738281,84.17558288574219 -83.40890502929688,94.78643035888672 -83.40888214111328,107.87559509277344 C-83.40888214111328,107.87559509277344 -83.40888214111328,107.87559509277344 -83.40888214111328,107.87559509277344 " stroke="none" fill="#83CC7C" fill-rule="evenodd" stroke-width="0" fill-opacity="1" />
  <text x="2.8843555450439453" y="35.284881591796875" dx="0" dy="0" font-family="Segoe UI" font-size="8.249999754130847pt" fill="#000000" style="text-anchor:start" transform="matrix(0.750000 0.000000 0.000000 0.750000 -157.80886840820312 84.17559814453125)">Least_Cost_Path_</text>
  <text x="83.04652404785156" y="35.284881591796875" dx="0" dy="0" font-family="Segoe UI" font-size="8.249999754130847pt" fill="#000000" style="text-anchor:start" transform="matrix(0.750000 0.000000 0.000000 0.750000 -157.80886840820312 84.17559814453125)"> ...</text>
  <path d="M-83.40888214111328,107.8755874633789 C-83.40888214111328,120.96473693847656 -100.06388854980469,131.57559204101562 -120.60885620117188,131.57559204101562 C-141.1538543701172,131.57559204101562 -157.80886840820312,120.96475219726562 -157.8088836669922,107.8756103515625 L-157.8088836669922,107.8756103515625 C-157.80889892578125,94.78646087646484 -141.15390014648438,84.17560577392578 -120.6089096069336,84.17559814453125 C-100.06391906738281,84.17558288574219 -83.40890502929688,94.78643035888672 -83.40888214111328,107.87559509277344 C-83.40888214111328,107.87559509277344 -83.40888214111328,107.87559509277344 -83.40888214111328,107.87559509277344 " stroke="none" fill="none" stroke-width="0.75" stroke-opacity="0" />
</svg>